<?xml version="1.0" standalone="no"?>
<!DOCTYPE svg PUBLIC "-//W3C//DTD SVG 20010904//EN"
 "http://www.w3.org/TR/2001/REC-SVG-20010904/DTD/svg10.dtd">
<svg version="1.0" xmlns="http://www.w3.org/2000/svg"
 width="225.000000pt" height="225.000000pt" viewBox="0 0 225.000000 225.000000"
 preserveAspectRatio="xMidYMid meet">

<g transform="translate(0.000000,225.000000) scale(0.100000,-0.100000)"
fill="#000000" stroke="none">
<path d="M744 2227 c-29 -14 -66 -43 -84 -66 -31 -38 -37 -41 -85 -41 -60 0
-106 -26 -142 -79 -34 -50 -28 -62 8 -18 40 48 77 67 133 67 45 0 45 0 36 -26
-18 -45 -9 -51 9 -6 41 103 113 152 222 152 76 0 165 -38 187 -80 l14 -25 -7
30 c-9 40 -20 52 -79 82 -73 37 -148 40 -212 10z"/>
<path d="M1002 1997 c-12 -23 -46 -70 -76 -105 -67 -79 -102 -148 -121 -241
-18 -82 -17 -95 5 -80 10 7 11 12 4 15 -35 14 42 201 111 270 24 23 45 48 48
56 3 8 6 5 6 -7 1 -16 3 -17 10 -6 5 8 7 20 4 27 -2 7 0 21 6 31 8 14 10 9 11
-28 0 -40 3 -48 22 -52 14 -4 30 0 42 11 18 16 19 16 13 0 -4 -10 -4 -18 -1
-18 12 0 50 24 61 39 6 9 15 12 20 8 7 -8 -16 -31 -41 -40 -6 -2 -8 -7 -5 -11
3 -3 17 -2 30 3 13 5 20 10 15 10 -18 2 17 31 38 32 11 0 16 3 9 5 -7 3 -9 13
-6 22 6 15 3 14 -15 -2 -28 -24 -28 -7 -1 28 11 14 16 26 11 26 -6 0 -20 -16
-32 -35 -31 -50 -58 -47 -63 8 l-4 42 -1 -45 c-2 -38 -6 -47 -32 -62 l-29 -16
17 34 c14 31 14 36 2 44 -10 6 -16 5 -18 -3 -11 -38 -16 -39 -22 -7 -3 19 -2
46 2 59 14 39 4 33 -20 -12z"/>
<path d="M349 1937 c-44 -22 -89 -76 -89 -106 1 -9 7 -1 15 17 11 24 28 39 64
55 44 19 69 42 58 53 -2 2 -23 -6 -48 -19z"/>
<path d="M1906 1899 c-63 -15 -133 -59 -161 -100 -33 -47 -60 -134 -69 -221
-6 -57 -10 -67 -29 -72 -165 -41 -316 -59 -537 -66 l-235 -6 195 -2 c204 -2
331 10 495 47 135 31 166 28 203 -14 54 -61 54 -133 1 -161 -67 -34 -378 -84
-526 -84 -71 0 -72 0 -76 28 -2 15 -4 2 -4 -28 -1 -30 1 -47 4 -38 5 20 30 25
173 32 58 3 161 15 229 27 141 24 141 24 141 -52 1 -242 -179 -444 -447 -503
-69 -15 -323 -38 -346 -31 -7 2 -54 6 -105 9 l-93 6 52 -43 c29 -23 54 -46 55
-52 1 -5 -13 -23 -33 -39 -29 -25 -38 -28 -51 -18 -125 91 -284 81 -384 -24
-175 -183 -50 -478 202 -478 76 0 146 27 199 77 83 79 107 219 54 327 -15 30
-27 58 -27 61 -1 3 16 20 36 38 l38 33 44 -37 45 -36 -24 -35 c-46 -67 -54
-177 -20 -261 20 -48 90 -118 143 -144 74 -35 171 -33 247 6 107 55 162 156
153 278 -6 72 -24 111 -75 168 -50 55 -105 81 -184 87 -74 5 -124 -7 -182 -44
l-38 -25 -28 20 c-53 38 -54 45 -13 78 34 27 47 31 132 38 396 30 608 166 665
429 12 52 16 98 12 137 l-7 58 38 12 c20 6 45 18 55 27 24 21 22 88 -3 130
-22 35 -74 72 -104 72 -17 0 -18 6 -12 78 8 97 31 163 74 213 44 51 93 76 179
90 113 19 189 -15 235 -105 26 -51 35 -169 16 -206 -51 -95 -230 -94 -276 3
-14 30 -35 38 -25 10 9 -26 44 -63 75 -79 16 -8 56 -14 96 -14 55 0 76 5 103
23 76 51 89 154 33 264 -41 81 -97 115 -197 119 -39 2 -90 -1 -111 -7z m-996
-1256 c0 -11 -33 -43 -44 -43 -6 1 -24 12 -41 25 l-30 25 58 0 c31 0 57 -3 57
-7z m-234 -102 c50 -23 104 -75 130 -127 14 -29 19 -60 19 -119 -1 -96 -21
-142 -89 -202 -144 -127 -379 -58 -433 126 -65 225 157 417 373 322z m609 0
c80 -37 145 -133 153 -227 8 -106 -54 -211 -154 -260 -49 -24 -63 -26 -134
-22 -85 5 -135 29 -186 87 -50 58 -66 107 -62 189 3 64 9 86 34 127 71 117
222 163 349 106z"/>
<path d="M478 534 c-59 -18 -130 -87 -154 -149 -26 -70 -15 -163 26 -224 93
-136 274 -156 388 -42 132 132 75 363 -102 416 -61 18 -97 18 -158 -1z m118 0
c21 -5 21 -6 -5 -79 -15 -41 -29 -77 -33 -80 -4 -4 -23 25 -43 65 -20 40 -33
76 -28 80 17 16 74 23 109 14z m23 -93 c-13 -39 -27 -71 -31 -71 -11 0 -11 -2
12 66 30 86 30 87 36 81 3 -3 -5 -37 -17 -76z m-121 3 c18 -37 31 -69 27 -72
-7 -7 -8 -5 -44 65 -33 67 -35 73 -23 73 4 0 22 -30 40 -66z m199 48 l21 -17
-49 -44 c-50 -43 -50 -43 -43 -15 10 45 32 94 41 94 4 0 18 -8 30 -18z m-193
-144 c-7 -12 -154 43 -154 57 0 8 18 33 41 57 l41 43 38 -75 c21 -41 36 -78
34 -82z m254 84 c2 -6 -21 -23 -50 -38 l-53 -26 40 41 c38 40 55 46 63 23z
m12 -32 c0 -10 -111 -70 -130 -70 -27 0 -4 19 58 47 37 17 68 32 70 32 1 1 2
-3 2 -9z m-378 -34 c55 -17 92 -36 84 -43 -7 -8 -136 37 -136 48 0 11 -4 12
52 -5z m402 -17 c10 -50 7 -99 -5 -99 -26 0 -149 42 -149 50 0 8 124 78 141
80 4 0 9 -14 13 -31z m-184 -11 c11 -12 20 -30 20 -40 0 -25 -44 -68 -70 -68
-22 0 -70 41 -70 60 0 16 21 53 34 62 22 15 66 8 86 -14z m-205 -11 c38 -13
70 -28 72 -33 1 -5 -29 -26 -67 -47 l-70 -38 -10 26 c-12 32 -13 115 -2 115 4
0 39 -10 77 -23z m320 -76 c11 -5 28 -12 38 -15 9 -3 17 -10 17 -15 0 -5 -34
2 -75 16 -41 13 -73 29 -70 33 5 9 52 -1 90 -19z m-235 11 c0 -12 -131 -75
-139 -66 -3 4 0 9 8 12 7 2 37 17 65 32 56 31 66 34 66 22z m222 -41 c57 -19
66 -25 59 -39 -12 -22 -80 -87 -85 -81 -10 10 -66 130 -66 140 0 6 6 9 13 7 6
-3 42 -15 79 -27z m-202 11 c0 -15 -42 -137 -51 -146 -4 -5 -29 12 -56 37 -26
25 -46 47 -43 49 3 2 32 18 65 35 61 33 85 40 85 25z m129 -75 c17 -37 26 -67
21 -67 -12 0 -69 122 -63 133 7 12 8 9 42 -66z m-101 51 c-16 -59 -43 -128
-51 -128 -5 0 -7 6 -4 13 2 6 13 38 23 70 10 31 22 57 27 57 4 0 7 -6 5 -12z
m71 -59 c39 -83 36 -89 -46 -89 -61 0 -62 2 -33 80 12 30 23 61 25 68 8 24 20
11 54 -59z"/>
<path d="M1100 541 c-111 -34 -181 -127 -181 -243 -1 -166 157 -290 313 -244
139 40 219 188 174 323 -41 122 -187 200 -306 164z m105 -11 c6 -10 -31 -138
-45 -153 -4 -4 -24 24 -45 63 -20 40 -33 76 -29 80 19 18 110 25 119 10z m35
-17 c0 -19 -45 -141 -50 -138 -9 6 31 145 42 145 4 0 8 -3 8 -7z m67 -24 c30
-19 63 -64 63 -86 0 -14 -119 -75 -132 -67 -7 4 16 21 56 41 38 19 66 37 63
40 -3 3 -35 -11 -71 -30 -37 -19 -68 -32 -71 -28 -7 12 37 151 48 151 5 0 25
-9 44 -21z m-205 -51 c18 -34 32 -66 31 -70 -2 -4 11 -8 29 -8 42 0 68 -25 68
-66 0 -23 -7 -38 -22 -48 -30 -21 -50 -20 -82 5 -29 22 -33 55 -12 84 12 16 9
27 -26 92 -22 40 -35 73 -29 73 5 0 25 -28 43 -62z m-42 10 l23 -43 -36 34
c-20 19 -34 38 -31 43 10 16 21 8 44 -34z m18 -85 c17 -17 13 -16 -64 4 -35 9
-64 21 -64 25 0 5 7 20 16 33 l16 25 42 -37 c22 -20 47 -43 54 -50z m328 -40
c10 -68 1 -74 -82 -49 -40 11 -73 26 -75 31 -2 6 27 27 66 47 77 40 80 39 91
-29z m-378 26 c72 -24 85 -45 15 -23 -27 8 -60 17 -75 21 -28 6 -39 23 -15 23
7 0 41 -9 75 -21z m10 -36 c29 -8 52 -19 50 -24 -5 -16 -136 -84 -145 -76 -4
4 -9 35 -11 69 l-5 61 29 -7 c16 -4 53 -14 82 -23z m275 -48 c55 -16 85 -31
77 -38 -8 -8 -151 38 -144 46 10 9 8 9 67 -8z m-219 -4 c4 -5 -23 -25 -59 -45
-71 -39 -75 -40 -75 -28 0 5 23 19 50 32 28 13 56 30 62 37 12 15 15 16 22 4z
m242 -37 l55 -16 -17 -26 c-9 -15 -28 -40 -43 -55 -24 -26 -26 -27 -39 -10 -8
10 -27 45 -44 77 l-30 59 31 -6 c18 -4 57 -14 87 -23z m-216 5 c0 -20 -41
-149 -47 -149 -13 0 -74 43 -88 63 -14 20 -11 22 53 58 73 42 82 45 82 28z
m155 -119 c11 -36 -7 -16 -44 51 -17 31 -28 59 -24 62 7 8 56 -74 68 -113z
m-125 104 c0 -24 -43 -144 -49 -139 -10 5 30 145 42 145 4 0 7 -3 7 -6z m71
-65 l37 -70 -25 -10 c-21 -8 -113 -13 -113 -6 1 25 50 157 59 157 3 0 22 -32
42 -71z"/>
<path d="M252 1790 c0 -14 2 -19 5 -12 2 6 2 18 0 25 -3 6 -5 1 -5 -13z"/>
<path d="M1227 1753 c6 -79 11 -89 12 -23 0 30 -3 61 -8 68 -4 7 -6 -13 -4
-45z"/>
<path d="M410 1780 c0 -11 28 -81 64 -162 14 -32 24 -58 22 -58 -3 0 -35 25
-73 56 -74 61 -117 84 -160 84 -44 0 -110 -38 -143 -83 -45 -61 -39 -98 23
-165 l31 -32 0 -163 c1 -160 1 -163 33 -235 41 -95 99 -169 171 -219 60 -42
141 -87 147 -81 2 2 -22 17 -53 33 -74 39 -172 136 -206 203 -46 91 -69 203
-64 315 3 53 8 100 11 103 3 3 34 -8 69 -24 67 -32 228 -85 235 -78 2 2 -29
14 -69 26 -174 53 -310 154 -324 242 -7 42 27 88 89 120 64 32 104 21 190 -52
68 -58 162 -112 217 -124 14 -4 -1 6 -32 20 -55 25 -58 28 -101 117 -24 51
-50 109 -56 130 -12 36 -21 48 -21 27z"/>
<path d="M621 1774 c0 -11 3 -14 6 -6 3 7 2 16 -1 19 -3 4 -6 -2 -5 -13z"/>
<path d="M252 1735 c0 -16 2 -22 5 -12 2 9 2 23 0 30 -3 6 -5 -1 -5 -18z"/>
<path d="M631 1714 c0 -11 3 -14 6 -6 3 7 2 16 -1 19 -3 4 -6 -2 -5 -13z"/>
<path d="M1182 1691 c2 -7 7 -12 11 -12 12 1 9 15 -3 20 -7 2 -11 -2 -8 -8z"/>
<path d="M643 1675 c3 -11 15 -56 27 -100 12 -43 25 -85 27 -93 4 -10 -2 -12
-23 -7 -23 4 -25 3 -9 -4 11 -5 28 -10 38 -10 14 -1 16 3 8 17 -5 9 -21 59
-35 111 -14 51 -28 96 -32 100 -4 3 -4 -3 -1 -14z"/>
<path d="M1074 1665 c4 -24 16 -30 16 -7 0 12 -4 22 -9 22 -5 0 -8 -7 -7 -15z"/>
<path d="M1192 1614 c-7 -8 -8 -14 -3 -14 10 0 25 19 20 25 -2 1 -10 -3 -17
-11z"/>
<path d="M1271 1565 c-8 -23 -26 -44 -47 -57 -19 -11 -34 -22 -34 -25 0 -3 14
4 32 14 33 19 72 75 66 94 -2 6 -9 -6 -17 -26z"/>
<path d="M818 1560 c-15 -17 -15 -18 1 -23 12 -3 17 3 19 19 2 28 2 28 -20 4z"/>
<path d="M1210 1565 c-7 -8 -27 -19 -44 -24 -17 -5 -23 -10 -13 -10 23 -1 77
26 77 39 0 14 -6 12 -20 -5z"/>
<path d="M856 1541 c-3 -5 2 -15 11 -22 14 -12 16 -12 9 0 -5 8 -3 17 5 22 11
7 11 9 -3 9 -9 0 -19 -4 -22 -9z"/>
<path d="M908 1483 c6 -2 18 -2 25 0 6 3 1 5 -13 5 -14 0 -19 -2 -12 -5z"/>
<path d="M743 1453 c9 -2 23 -2 30 0 6 3 -1 5 -18 5 -16 0 -22 -2 -12 -5z"/>
<path d="M808 1443 c12 -2 32 -2 45 0 12 2 2 4 -23 4 -25 0 -35 -2 -22 -4z"/>
<path d="M1049 1293 c-13 -16 -12 -17 4 -4 9 7 17 15 17 17 0 8 -8 3 -21 -13z"/>
<path d="M711 1284 c0 -11 3 -14 6 -6 3 7 2 16 -1 19 -3 4 -6 -2 -5 -13z"/>
<path d="M538 1263 c6 -2 18 -2 25 0 6 3 1 5 -13 5 -14 0 -19 -2 -12 -5z"/>
<path d="M588 1253 c6 -2 18 -2 25 0 6 3 1 5 -13 5 -14 0 -19 -2 -12 -5z"/>
<path d="M910 1239 c-6 -11 -9 -25 -7 -32 3 -7 -7 -25 -22 -42 l-26 -30 32 29
c17 15 29 34 26 41 -2 8 0 23 7 34 6 12 8 21 6 21 -3 0 -10 -9 -16 -21z"/>
<path d="M643 1243 c9 -2 25 -2 35 0 9 3 1 5 -18 5 -19 0 -27 -2 -17 -5z"/>
<path d="M708 1210 c2 -16 6 -30 8 -30 2 0 4 14 4 30 0 17 -4 30 -8 30 -5 0
-7 -13 -4 -30z"/>
<path d="M962 1210 c-7 -11 -8 -20 -3 -20 9 0 24 30 18 36 -1 2 -8 -6 -15 -16z"/>
<path d="M995 1150 c10 -11 20 -20 23 -20 3 0 -3 9 -13 20 -10 11 -20 20 -23
20 -3 0 3 -9 13 -20z"/>
<path d="M1156 1093 c-6 -14 -5 -15 5 -6 7 7 10 15 7 18 -3 3 -9 -2 -12 -12z"/>
<path d="M565 705 c17 -8 37 -14 45 -14 8 0 -1 7 -20 14 -46 18 -64 17 -25 0z"/>
<path d="M638 683 c7 -3 16 -2 19 1 4 3 -2 6 -13 5 -11 0 -14 -3 -6 -6z"/>
<path d="M678 673 c6 -2 18 -2 25 0 6 3 1 5 -13 5 -14 0 -19 -2 -12 -5z"/>
</g>
</svg>
